PathFileType	4	(X/Y/Z)	./resultDataOpenSim/trcMotMarkerGrf/sub06/qtm-05-07.trc
DataRate	CameraRate	NumFrames	NumMarkers	Units	OrigDataRate	OrigDataStartFrame	OrigNumFrames
250.000000	250.000000	14	24	m	250.000000	267	533
Frame#	Time	L.Toe.Tip			R.Toe.Tip			L.Ankle.Lat			R.Ankle.Lat			L.Ankle.Med			R.Ankle.Med			L.Heel			R.Heel			L.Knee.Lat			R.Knee.Lat			L.Knee.Med			R.Knee.Med			L.Thigh.Upper			R.Thigh.Upper			L.ASIS			R.ASIS			V.Sacral			L.Acromium			R.Acromium			C7			L.Elbow			R.Elbow			L.Wrist.Lat			R.Wrist.Lat
		X1	Y1	Z1	X2	Y2	Z2	X3	Y3	Z3	X4	Y4	Z4	X5	Y5	Z5	X6	Y6	Z6	X7	Y7	Z7	X8	Y8	Z8	X9	Y9	Z9	X10	Y10	Z10	X11	Y11	Z11	X12	Y12	Z12	X13	Y13	Z13	X14	Y14	Z14	X15	Y15	Z15	X16	Y16	Z16	X17	Y17	Z17	X18	Y18	Z18	X19	Y19	Z19	X20	Y20	Z20	X21	Y21	Z21	X22	Y22	Z22	X23	Y23	Z23	X24	Y24	Z24

267	1.064	0.054878436	-0.064434311	0.0048786288	0.80053676	0.11682968	0.15011445	-0.036136795	0.018426679	-0.032443286	0.66754507	0.090155258	0.15718539	-0.02919137	0.035882696	0.052592773	0.68631839	0.12680825	0.075484219	-0.11137668	0.02699569	0.013552386	0.63201645	0.054047856	0.088096469	0.14447823	0.35121248	-0.049855925	0.57731376	0.46757054	0.19341033	0.12836917	0.3538119	0.07105825	0.56635726	0.45123498	0.069787924	0.26073975	0.7105513	-0.11554028	0.31929638	0.73251059	0.23521347	0.35219635	0.75277222	-0.084386438	0.39071305	0.77916181	0.15886013	0.18633604	0.84364671	0.068984093	0.3596265	1.2470407	-0.12674603	0.33180992	1.2304547	0.23654566	0.26923424	1.2804057	0.04777526	0.40132371	0.93324508	-0.19964179	0.1551239	0.96969603	0.27555514	0.66166708	0.88399915	-0.13556945	0.17516083	0.74366094	0.35100196
268	1.068	0.054921269	-0.064461758	0.0048289431	0.80964987	0.11700968	0.14778626	-0.034562939	0.019404537	-0.0329514	0.67675634	0.089286593	0.15590567	-0.027551607	0.036798712	0.05202812	0.69470222	0.12598216	0.074104592	-0.10971724	0.029039649	0.013033665	0.64105503	0.052777369	0.087189166	0.14947815	0.35057097	-0.050159424	0.58477436	0.46632739	0.19226273	0.1342116	0.35303666	0.07037036	0.5732503	0.4496746	0.06867307	0.26659222	0.70931302	-0.1151192	0.32724892	0.7313566	0.23524916	0.35853543	0.75146381	-0.084553446	0.39824697	0.7779426	0.15864095	0.1934082	0.84260263	0.069889861	0.36666377	1.2459002	-0.12628419	0.33901994	1.2291537	0.23711122	0.27641183	1.2792138	0.048369767	0.40938454	0.93229617	-0.19914255	0.16224011	0.96865689	0.27611118	0.6702771	0.88513586	-0.13378367	0.18092262	0.74271908	0.35181733
269	1.072	0.05498796	-0.06448313	0.0047845575	0.81795536	0.11669889	0.14547273	-0.032906946	0.02043752	-0.033489653	0.68515637	0.088234032	0.15462465	-0.025728649	0.03780891	0.051462977	0.70237879	0.12489238	0.072698037	-0.10792748	0.031182115	0.012513225	0.64920837	0.051369941	0.086282098	0.15462998	0.3499134	-0.050479475	0.59225698	0.4652093	0.19113447	0.14020211	0.3520085	0.069920816	0.58019566	0.44823811	0.067407614	0.27255652	0.70811772	-0.11470326	0.33539909	0.73031645	0.23532656	0.36496653	0.75021519	-0.084718346	0.40585729	0.77675453	0.15838398	0.2005964	0.84160691	0.070574582	0.37373492	1.2448176	-0.12576228	0.34626842	1.2278935	0.23770524	0.28362739	1.278053	0.049006764	0.41763025	0.93136835	-0.19871322	0.16943989	0.96761124	0.27666821	0.6787897	0.88618279	-0.13202927	0.1868327	0.74177228	0.35263319
270	1.076	0.055084978	-0.064493273	0.004753703	0.82547545	0.1158598	0.14320913	-0.031164397	0.02151897	-0.034070689	0.69276459	0.086958854	0.15333227	-0.023756001	0.038876057	0.050869744	0.70937942	0.12351309	0.071270192	-0.10600321	0.033407892	0.011978319	0.65650884	0.04980097	0.085378838	0.15992436	0.34923232	-0.050797027	0.59975957	0.46415238	0.1899961	0.14620473	0.35082147	0.069719736	0.58707558	0.4469188	0.066073351	0.2786259	0.70697125	-0.11429534	0.34368294	0.72938565	0.23541843	0.37146325	0.74904315	-0.084862936	0.41354709	0.77560268	0.15809388	0.20787698	0.84066354	0.070999527	0.38084351	1.2437963	-0.1251845	0.35355283	1.2266735	0.23832997	0.2908816	1.2769248	0.049682191	0.4260416	0.93046308	-0.19834517	0.17671275	0.96656596	0.27722408	0.68720486	0.88713878	-0.1302991	0.1929028	0.74082811	0.35345238
271	1.08	0.055208239	-0.064494698	0.0047327445	0.83223781	0.11449114	0.14101406	-0.029307262	0.022639632	-0.034714363	0.69958897	0.085445771	0.15203835	-0.021669196	0.039966933	0.050224663	0.71572324	0.12183139	0.069822044	-0.10393822	0.035705253	0.011422249	0.66299373	0.048051076	0.084483907	0.16536404	0.34852114	-0.051110707	0.60728308	0.46308334	0.18879022	0.15221618	0.34959594	0.069639545	0.59381875	0.44571383	0.064692057	0.28479008	0.70587576	-0.11389611	0.35196996	0.7285198	0.23546494	0.37796573	0.7479644	-0.084963338	0.4213207	0.77448973	0.15777686	0.21522733	0.83977267	0.071185413	0.38799133	1.2428361	-0.12455701	0.36086968	1.2254898	0.23898538	0.29817643	1.2758301	0.050390303	0.43459872	0.9295818	-0.19802966	0.18405341	0.96553515	0.27777566	0.6955226	0.88800042	-0.12858592	0.19913556	0.7398899	0.35427286
272	1.084	0.055351992	-0.06449271	0.0047134853	0.83828944	0.11261559	0.13888759	-0.02730256	0.023793333	-0.035428192	0.70566396	0.083680907	0.15075568	-0.019476592	0.04107253	0.049531027	0.72142161	0.11985851	0.068373159	-0.10171102	0.038080847	0.010857836	0.66870212	0.04610688	0.083601342	0.17095675	0.34777806	-0.051437668	0.61480187	0.46193928	0.18749105	0.15832713	0.34840093	0.069540718	0.6004108	0.44461683	0.063282578	0.2910433	0.70482671	-0.11350083	0.36020637	0.72769893	0.23544826	0.38441323	0.74698728	-0.08500464	0.42918725	0.77341915	0.15744079	0.22263736	0.8389327	0.071173367	0.39518281	1.2419344	-0.12388195	0.36821532	1.2243412	0.23966913	0.30551475	1.2747688	0.051130769	0.44328178	0.92872585	-0.19775796	0.1914591	0.96453633	0.27831889	0.70374238	0.8887653	-0.12688989	0.20553452	0.73896243	0.35509223
273	1.088	0.05551678	-0.064488279	0.0046909757	0.84369252	0.11026418	0.13681806	-0.025133363	0.024973903	-0.036187424	0.71104209	0.081660565	0.14949589	-0.017164229	0.042192263	0.048802645	0.72649348	0.11761508	0.066958213	-0.099298386	0.040543423	0.010296511	0.67368649	0.043946345	0.082739535	0.17670685	0.34700302	-0.051804061	0.62227347	0.46069087	0.18609217	0.16460703	0.34725719	0.069352428	0.60688011	0.44361524	0.061881552	0.29739034	0.70381322	-0.11310122	0.36845222	0.72695402	0.2354025	0.39082923	0.7461032	-0.085003438	0.43714852	0.77239131	0.15708865	0.23010515	0.83814187	0.071003194	0.40242703	1.2410908	-0.12315647	0.37558798	1.2232322	0.24038094	0.31289959	1.2737392	0.051903234	0.45207109	0.92789655	-0.19752138	0.19892889	0.96358253	0.27884858	0.71186543	0.88943418	-0.1252162	0.21208969	0.7380533	0.35591287
274	1.092	0.055709086	-0.064478772	0.0046620591	0.84850687	0.10747612	0.13478887	-0.022792201	0.026170339	-0.036960597	0.71569654	0.079442289	0.14829924	-0.014702286	0.043332901	0.048050932	0.73097458	0.1151039	0.065603706	-0.096692792	0.043090232	0.0097365566	0.67802055	0.041526685	0.081923116	0.18261063	0.346192	-0.052223604	0.62966225	0.45934848	0.18456701	0.17106519	0.34615515	0.069069337	0.61325627	0.44268091	0.060514643	0.30383986	0.70282807	-0.11269067	0.37679425	0.72632903	0.23536605	0.39734648	0.74528903	-0.085007492	0.4452025	0.77140475	0.15672176	0.23763116	0.83739874	0.070708655	0.40973389	1.2403093	-0.12237763	0.38299519	1.2221728	0.24112636	0.32033049	1.2727395	0.052699222	0.46094707	0.92709524	-0.19731124	0.20646123	0.96268107	0.27935759	0.71989483	0.89001217	-0.12356875	0.21876406	0.73716842	0.35673928
275	1.096	0.055936855	-0.064463199	0.0046199605	0.85277379	0.10431519	0.13278157	-0.020279809	0.027375343	-0.037752019	0.71947407	0.077156858	0.14724548	-0.012052744	0.044511928	0.047282044	0.73489951	0.11230992	0.064324266	-0.093896412	0.045712824	0.0091670684	0.68177142	0.03881255	0.081197233	0.18866411	0.34533688	-0.052690019	0.63694769	0.45791742	0.1829025	0.17768565	0.34506428	0.068717303	0.61953482	0.44176721	0.059172218	0.3103951	0.70186859	-0.11226983	0.38526133	0.72583594	0.23534318	0.40408724	0.74452094	-0.085056849	0.45335982	0.77046605	0.15635145	0.2452155	0.8367023	0.070319871	0.41710839	1.2395948	-0.12154657	0.39044841	1.2211732	0.24191068	0.32780123	1.2717702	0.053512675	0.46989014	0.92632339	-0.19711882	0.21405197	0.96183398	0.27983958	0.72783129	0.89050496	-0.12195069	0.22553392	0.73631181	0.35757378
276	1.1	0.056204703	-0.064443442	0.0045541024	0.85651881	0.10086621	0.13077472	-0.017627317	0.028608652	-0.038597567	0.72231123	0.074867194	0.14638047	-0.00919471	0.045733213	0.046482856	0.7382803	0.10921583	0.063120431	-0.090905911	0.048403257	0.0085713081	0.68495271	0.035852779	0.080609196	0.19487163	0.34443171	-0.05319547	0.64411951	0.45633375	0.18116643	0.18446303	0.34393866	0.068330085	0.62567838	0.44081035	0.057821771	0.31705437	0.70092784	-0.11184638	0.39382016	0.72544479	0.23530539	0.41105292	0.74378643	-0.085153414	0.46163585	0.76958765	0.15599273	0.25285747	0.83605168	0.069866274	0.42454844	1.2389497	-0.1206669	0.39795012	1.2202359	0.24273067	0.33530371	1.2708351	0.054349148	0.47888055	0.92558253	-0.1969353	0.22169605	0.96103832	0.28029232	0.73567064	0.89091282	-0.12036855	0.23244016	0.73549029	0.35842041
277	1.104	0.056512138	-0.064421997	0.0044555297	0.85978528	0.0971772	0.1287394	-0.014921895	0.02993943	-0.039521743	0.72458689	0.072369434	0.14560359	-0.0061333816	0.046975284	0.04562174	0.74113685	0.10580888	0.061931656	-0.087707475	0.051152871	0.0079346951	0.68752031	0.032872651	0.080148693	0.20123951	0.34347545	-0.053751929	0.65115362	0.45449373	0.17946789	0.19139592	0.34272628	0.067947724	0.63164845	0.43972429	0.056442917	0.32381773	0.69999804	-0.11142631	0.40242628	0.72510079	0.23521685	0.41816964	0.7430836	-0.085275098	0.47003609	0.76877668	0.1556508	0.26055568	0.83544588	0.069378037	0.43204787	1.2383721	-0.11974002	0.40549917	1.2193546	0.24357756	0.34283322	1.2699374	0.055215738	0.48789825	0.92487413	-0.19675179	0.22938944	0.96028906	0.28071873	0.74340749	0.8912313	-0.11882926	0.23955359	0.73471147	0.35928838
278	1.108	0.05685626	-0.064400489	0.0043228331	0.86269597	0.093143048	0.12664795	-0.012289777	0.031462271	-0.040505635	0.72704726	0.069326274	0.14468184	-0.0028762544	0.048213685	0.044676296	0.74361159	0.10211331	0.060593727	-0.08428115	0.053951836	0.0072503598	0.68947596	0.030300669	0.079650745	0.20776461	0.34246745	-0.054395084	0.6579784	0.45233934	0.17785484	0.1984644	0.34139903	0.067608394	0.63742816	0.43840553	0.055059492	0.33069137	0.699078	-0.11100603	0.41107055	0.72475618	0.23505363	0.42538117	0.74241225	-0.085401708	0.47854246	0.76803049	0.15531503	0.26830835	0.83488359	0.068886042	0.43960048	1.237858	-0.11876497	0.4130984	1.2185216	0.24444446	0.35038771	1.2690741	0.056111367	0.49692303	0.92419943	-0.19655936	0.23714116	0.95958004	0.28112043	0.75104126	0.89145714	-0.11733308	0.24689859	0.73397781	0.36018458
279	1.112	0.057236977	-0.064378061	0.0041644349	0.86553693	0.088390675	0.12453889	-0.0097733265	0.033190581	-0.041499774	0.73023176	0.065762897	0.14343469	0.00058526333	0.049437232	0.043651154	0.74610654	0.098270421	0.058941136	-0.080606417	0.056790982	0.0065128924	0.6910319	0.028638129	0.078791606	0.21444317	0.34140227	-0.055156266	0.66448753	0.44986123	0.17631608	0.20566881	0.33997946	0.067283225	0.64301232	0.43674629	0.053749215	0.33768515	0.69816512	-0.1105725	0.41977661	0.72438923	0.23481186	0.43266952	0.74176872	-0.085521054	0.48709939	0.76734006	0.15496061	0.27611356	0.83436332	0.068421168	0.44720046	1.2374039	-0.11774111	0.42075031	1.2177344	0.24532864	0.35796101	1.2682363	0.057031826	0.50593477	0.92355958	-0.1963492	0.24498086	0.958901	0.28149124	0.75857855	0.89159232	-0.11587452	0.25444763	0.73328677	0.3611055
280	1.116	0.057664082	-0.06435239	0.0039931718	0.86878319	0.082381513	0.12263961	-0.0072049566	0.034975998	-0.042487387	0.73411399	0.062318804	0.14191719	0.004269549	0.050641138	0.042564891	0.74927355	0.094565035	0.057035807	-0.076663692	0.059661187	0.0057074145	0.69258961	0.02820469	0.077386412	0.22129234	0.34026806	-0.056014088	0.67064726	0.447081	0.17485596	0.21312577	0.33851411	0.066802233	0.64839304	0.43463987	0.052615974	0.34480595	0.69724799	-0.11010958	0.42855843	0.72399944	0.2345163	0.44003267	0.74114956	-0.085621066	0.49562905	0.76670123	0.15456534	0.28396943	0.83388366	0.068013635	0.45483889	1.2370085	-0.11667003	0.4284542	1.2169925	0.24622844	0.36554297	1.2674197	0.057977711	0.51491363	0.92295575	-0.19611252	0.25290943	0.95823919	0.28183734	0.76602681	0.89164141	-0.11444971	0.26216412	0.73263336	0.36204291
